<svg width="301" height="29" viewBox="0 0 301 29" fill="none" xmlns="http://www.w3.org/2000/svg">
<path d="M38.2063 15.8289C38.2063 14.4744 38.4584 13.2853 38.9627 12.2615C39.4827 11.2377 40.1839 10.4502 41.0663 9.89899C41.9488 9.34773 42.9337 9.0721 44.021 9.0721C44.9507 9.0721 45.7622 9.2611 46.4556 9.63911C47.1647 10.0171 47.7084 10.5132 48.0865 11.1275V9.2611H52.1285V22.444H48.0865V20.5776C47.6926 21.1919 47.1411 21.688 46.432 22.066C45.7386 22.444 44.9271 22.633 43.9973 22.633C42.9258 22.633 41.9488 22.3574 41.0663 21.8061C40.1839 21.2391 39.4827 20.4437 38.9627 19.42C38.4584 18.3805 38.2063 17.1834 38.2063 15.8289ZM48.0865 15.8526C48.0865 14.8445 47.8029 14.0492 47.2356 13.4664C46.6841 12.8836 46.0065 12.5923 45.2028 12.5923C44.3992 12.5923 43.7137 12.8836 43.1464 13.4664C42.5949 14.0334 42.3191 14.8209 42.3191 15.8289C42.3191 16.8369 42.5949 17.6402 43.1464 18.2387C43.7137 18.8215 44.3992 19.1128 45.2028 19.1128C46.0065 19.1128 46.6841 18.8215 47.2356 18.2387C47.8029 17.6559 48.0865 16.8606 48.0865 15.8526Z" fill="white"/>
<path d="M83.6534 9.2611L75.3805 28.7047H71.0313L74.0568 21.9951L68.6912 9.2611H73.2059L76.255 17.5063L79.2806 9.2611H83.6534Z" fill="white"/>
<path d="M106.247 22.633C104.954 22.633 103.788 22.3574 102.748 21.8061C101.724 21.2549 100.912 20.4674 100.314 19.4436C99.7306 18.4198 99.4391 17.2228 99.4391 15.8526C99.4391 14.498 99.7385 13.3089 100.337 12.2851C100.936 11.2456 101.756 10.4502 102.796 9.89899C103.836 9.34773 105.002 9.0721 106.294 9.0721C107.586 9.0721 108.752 9.34773 109.792 9.89899C110.832 10.4502 111.652 11.2456 112.25 12.2851C112.849 13.3089 113.149 14.498 113.149 15.8526C113.149 17.2071 112.841 18.4041 112.227 19.4436C111.628 20.4674 110.801 21.2549 109.745 21.8061C108.705 22.3574 107.539 22.633 106.247 22.633ZM106.247 19.1365C107.019 19.1365 107.673 18.853 108.208 18.286C108.76 17.7189 109.036 16.9078 109.036 15.8526C109.036 14.7973 108.768 13.9862 108.232 13.4191C107.712 12.8521 107.066 12.5686 106.294 12.5686C105.506 12.5686 104.852 12.8521 104.332 13.4191C103.812 13.9704 103.552 14.7815 103.552 15.8526C103.552 16.9078 103.804 17.7189 104.308 18.286C104.828 18.853 105.474 19.1365 106.247 19.1365Z" fill="white"/>
<path d="M147.25 9.11935C148.889 9.11935 150.189 9.61548 151.15 10.6077C152.127 11.6 152.616 12.9781 152.616 14.7422V22.444H148.597V15.2855C148.597 14.435 148.369 13.7814 147.912 13.3246C147.471 12.8521 146.856 12.6159 146.068 12.6159C145.28 12.6159 144.658 12.8521 144.201 13.3246C143.76 13.7814 143.539 14.435 143.539 15.2855V22.444H139.521V15.2855C139.521 14.435 139.292 13.7814 138.835 13.3246C138.394 12.8521 137.78 12.6159 136.992 12.6159C136.204 12.6159 135.581 12.8521 135.124 13.3246C134.683 13.7814 134.463 14.435 134.463 15.2855V22.444H130.421V9.2611H134.463V10.9149C134.872 10.3636 135.408 9.93049 136.07 9.61548C136.732 9.28473 137.48 9.11935 138.315 9.11935C139.308 9.11935 140.191 9.33198 140.963 9.75723C141.751 10.1825 142.365 10.7889 142.806 11.5764C143.263 10.8519 143.886 10.2612 144.674 9.80448C145.462 9.34773 146.32 9.11935 147.25 9.11935Z" fill="white"/>
<path d="M172.603 7.89084C171.894 7.89084 171.311 7.68609 170.854 7.27658C170.413 6.85133 170.192 6.33157 170.192 5.71731C170.192 5.08731 170.413 4.56755 170.854 4.15805C171.311 3.73279 171.894 3.52016 172.603 3.52016C173.296 3.52016 173.864 3.73279 174.305 4.15805C174.762 4.56755 174.99 5.08731 174.99 5.71731C174.99 6.33157 174.762 6.85133 174.305 7.27658C173.864 7.68609 173.296 7.89084 172.603 7.89084ZM174.612 9.2611V22.444H170.57V9.2611H174.612Z" fill="white"/>
<path d="M191.865 15.8289C191.865 14.4744 192.118 13.2853 192.622 12.2615C193.142 11.2377 193.843 10.4502 194.725 9.89899C195.608 9.34773 196.593 9.0721 197.68 9.0721C198.547 9.0721 199.335 9.25323 200.044 9.61548C200.769 9.97774 201.336 10.466 201.746 11.0802V4.96131H205.788V22.444H201.746V20.554C201.367 21.184 200.824 21.688 200.115 22.066C199.421 22.444 198.61 22.633 197.68 22.633C196.593 22.633 195.608 22.3574 194.725 21.8061C193.843 21.2391 193.142 20.4437 192.622 19.42C192.118 18.3805 191.865 17.1834 191.865 15.8289ZM201.746 15.8526C201.746 14.8445 201.462 14.0492 200.895 13.4664C200.343 12.8836 199.666 12.5923 198.862 12.5923C198.058 12.5923 197.373 12.8836 196.806 13.4664C196.254 14.0334 195.978 14.8209 195.978 15.8289C195.978 16.8369 196.254 17.6402 196.806 18.2387C197.373 18.8215 198.058 19.1128 198.862 19.1128C199.666 19.1128 200.343 18.8215 200.895 18.2387C201.462 17.6559 201.746 16.8606 201.746 15.8526Z" fill="white"/>
<path d="M236.273 15.6399C236.273 16.0179 236.249 16.4117 236.202 16.8212H227.054C227.117 17.6402 227.377 18.2702 227.834 18.7112C228.307 19.1365 228.882 19.3491 229.56 19.3491C230.568 19.3491 231.269 18.9238 231.663 18.0733H235.965C235.745 18.9396 235.343 19.7192 234.76 20.4122C234.192 21.1052 233.475 21.6486 232.609 22.0424C231.742 22.4361 230.773 22.633 229.701 22.633C228.409 22.633 227.259 22.3574 226.25 21.8061C225.242 21.2549 224.454 20.4674 223.887 19.4436C223.319 18.4198 223.036 17.2228 223.036 15.8526C223.036 14.4823 223.312 13.2853 223.863 12.2615C224.43 11.2377 225.218 10.4502 226.227 9.89899C227.235 9.34773 228.394 9.0721 229.701 9.0721C230.978 9.0721 232.112 9.33985 233.105 9.87536C234.098 10.4109 234.87 11.1747 235.422 12.167C235.989 13.1593 236.273 14.3169 236.273 15.6399ZM232.136 14.5768C232.136 13.8838 231.9 13.3325 231.427 12.923C230.954 12.5135 230.363 12.3088 229.654 12.3088C228.977 12.3088 228.401 12.5056 227.929 12.8994C227.472 13.2931 227.188 13.8523 227.078 14.5768H232.136Z" fill="white"/>
<path d="M262.538 0L256.204 26.8619H252.303L258.638 0H262.538Z" fill="white"/>
<path d="M12.1569 29L0.161133 15.947L12.1569 2.89408H24.8618L12.8069 15.947L24.8618 29H12.1569Z" fill="white"/>
<path d="M288.165 2.89408L300.161 15.947L288.165 29H275.46L287.515 15.947L275.46 2.89408H288.165Z" fill="white"/>
</svg>
